# xmcd
#
# Track frame offsets: 
#        150
#        12920
#        27893
#        42564
#        56006
#        71059
#        84216
#        97441
#        110129
#        124455
#        138938
#        152791
#        164276
#        178317
#        190114
#        202182
#        215156
#        226915
#        239458
#        246327
#
# Disc length: 3455 seconds
#
# Revision: 0
# Processed by: cddbd v1.5.2PL0 Copyright (c) Steve Scherf et al.
# Submitted via: ExactAudioCopy v1.0b3
#
DISCID=330d7d14
DTITLE=Gene Autry - The Ssential Recordings - CD1
DYEAR=2014
DGENRE=Western
TTITLE0=That Silver Haired Daddy Of Mine  (1932)
TTITLE1=Tumbling Tumbleweeds  (1935)
TTITLE2=Stay Away From My Chicken House  (1930)
TTITLE3=Cowboy Yodel  (1930)
TTITLE4=The Last Round-Up  (1933)
TTITLE5=The Yellow Rose Of Texas  (1933)
TTITLE6=Ridin Down The Canyon  (1935)
TTITLE7=Dear Old Western Skies  (1935)
TTITLE8=Mexicali Rose  (1936)
TTITLE9=Take Me Back To My Boots And Saddle  (1937)
TTITLE10=Ride, Tenderfoot, Ride  (1938)
TTITLE11=Dust  (1938)
TTITLE12=The Old Trail  (1938)
TTITLE13=Blue Montana Skies  (1939)
TTITLE14=Back In The Saddle Again  (1939)
TTITLE15=Goodbye Little Darling Goodbye  (1940)
TTITLE16=Rhytrhm Of The Range  (1937)
TTITLE17=Be Honest With Me  (1940)
TTITLE18=Sing Me A Song Of The Saddle  (1940)
TTITLE19=Lonely River  (1941)
EXTD=
EXTT0=
EXTT1=
EXTT2=
EXTT3=
EXTT4=
EXTT5=
EXTT6=
EXTT7=
EXTT8=
EXTT9=
EXTT10=
EXTT11=
EXTT12=
EXTT13=
EXTT14=
EXTT15=
EXTT16=
EXTT17=
EXTT18=
EXTT19=
PLAYORDER=
